<?xml version="1.0" encoding="UTF-8"?><svg xmlns="http://www.w3.org/2000/svg" width="375" height="84.13" viewBox="0 0 375 84.13"><defs><style>.d{fill:#fff;}</style></defs><g id="a"/><g id="b"><g id="c"><g><g><g><g><path class="d" d="M110.29,75.81c-.33-.42-1.18-1.49-1.81-3.11v9.65h-.96v-9.36c-.96,2.87-1.93,4.2-2.41,4.84l-.61-1.16c1.73-2.06,2.67-4.77,2.98-6.39h-2.78v-.96h2.82v-3.87h.96v3.87h2.32v.96h-2.32v.63c.96,2.47,2.08,3.61,2.52,4.07l-.72,.83Zm6.47,6.54h-.98v-7.42c-.57,1.16-2.1,3.83-4.85,5.95l-.88-.81c.9-.65,3.52-2.56,5.29-6.19h-4.53v-.9h4.97v-3.21h-2.76c-.55,1.2-1.03,1.82-1.44,2.34l-.77-.59c1.44-1.73,2.03-3.35,2.3-5.64l.92,.11c-.22,1.68-.5,2.45-.64,2.87h2.4v-3.41h.98v3.41h4.26v.9h-4.26v3.21h4.81v.9h-4.37c.26,.63,1.53,3.7,4.53,6.13l-.72,.94c-2.25-2.08-3.59-4.37-4.26-6.02v7.42Z"/><path class="d" d="M132.9,79.95c-4.44,1.03-7.87,1.42-9.76,1.62l-.11-1.05c1.44-.13,2.56-.26,4.33-.5v-6.34h-3.67v-.94h8.49v.94h-3.81v6.17c2.01-.33,3.24-.61,4.39-.87l.15,.96Zm1.01-14.5c-.04,1.42-.04,2.32-.02,3.28h6.1v.94h-6.06c.07,2.17,.39,6.69,2.06,9.62,.18,.31,1.12,1.97,2.03,1.97,.37,0,.55-.28,.64-.57,.2-.57,.42-1.44,.46-2.82l1.05,.26c-.18,2.04-.68,3.13-.81,3.35-.18,.35-.57,.79-1.33,.79-1.77,0-3.24-2.87-3.67-4-.76-1.95-1.31-4.38-1.47-8.6h-9.78v-.94h9.74c-.04-1.62-.04-2.27-.04-3.28h1.09Zm4.66,2.89c-.55-.52-1.36-1.22-2.89-2.08l.55-.74c.87,.48,1.75,1.03,2.97,2.03l-.63,.79Z"/><path class="d" d="M150.38,65.44c2.87,3.87,6.49,5.47,8.35,6.19l-.57,.98c-2.56-1.2-6.06-3.15-8.23-6.19-2.28,2.89-4.51,4.39-8.23,6.06l-.5-1.03c2.91-1.03,5.79-2.78,8.14-6.01h1.05Zm2.36,10.78c2.6,2.23,3.96,3.98,4.97,5.47l-.88,.66c-.22-.4-.39-.72-1.07-1.57-.99,.04-5.73,.44-6.71,.5-1.12,.07-6.08,.26-7.07,.33l-.11-1c.17,0,2.14-.06,2.43-.07,.81-1.18,1.86-3,2.82-5.16h-5.18v-.92h16.06v.92h-9.69c-.77,1.73-2.01,3.92-2.82,5.12,4.75-.19,6.43-.26,9.56-.57-.46-.52-1.57-1.79-3.08-3.08l.76-.64Zm-7.63-5.38h9.67v.94h-9.67v-.94Z"/><path class="d" d="M166.53,76.38c-.79-.61-2.17-2.25-2.45-2.62v8.59h-.99v-7.89c-1.4,1.29-2.32,1.82-2.87,2.14l-.42-.98c3.1-1.77,5.2-4.2,5.91-6.17h-5.73v-.89h3.11v-3.11h.99v3.11h2.65v.89c-.44,1.29-1.42,2.56-2.19,3.5,1.2,1.34,1.42,1.57,2.71,2.65l-.72,.77Zm5.62-10.92v5.43h4.27v.94h-4.27v8.88h4.7v.92h-10.56v-.92h4.81v-8.88h-3.85v-.94h3.85v-5.43h1.05Z"/></g><g><path class="d" d="M194.46,69.01s.09,.04,.14,.04c.03,0,.06,0,.08-.01,.08-.02,.14-.08,.17-.15l.64-1.43c.06-.13,0-.29-.12-.36-2.28-1.24-3.91-1.87-6.67-2.58-.13-.03-.26,.03-.32,.15l-.6,1.22c-.04,.07-.04,.16,0,.24,.03,.08,.1,.13,.18,.16,1.97,.57,4.12,1.3,6.5,2.73Z"/><path class="d" d="M203.82,67.89c-.07-.05-.16-.07-.25-.05-.09,.03-.15,.09-.18,.18-2.85,8.63-7.03,12.03-16,12.99-.08,0-.15,.05-.19,.11-.05,.06-.07,.14-.05,.22l.28,1.54c.02,.13,.14,.23,.27,.23,.01,0,.03,0,.04,0,10.05-1.44,13.93-4.59,17.29-14.05,.04-.11,0-.24-.09-.31l-1.11-.85Z"/><path class="d" d="M192.81,74.4s.05,0,.08-.01c.08-.02,.14-.08,.17-.15l.67-1.38c.07-.13,.01-.29-.12-.37-2.48-1.35-3.9-1.93-6.62-2.7-.13-.04-.27,.03-.33,.15l-.62,1.27c-.04,.07-.04,.16,0,.24s.1,.13,.18,.15c2.63,.75,4.14,1.39,6.45,2.76,.04,.03,.09,.04,.14,.04Z"/><path class="d" d="M222.95,64.12h-1.45c-.15,0-.28,.12-.28,.28v9.97c0,5.18-2.92,7.19-10.78,7.41-.08,0-.16,.04-.21,.11s-.07,.15-.05,.23l.3,1.36c.03,.13,.14,.22,.27,.22h.01c6.17-.3,12.47-1.65,12.47-9.4v-9.9c0-.15-.13-.28-.28-.28Z"/><rect class="d" x="209.13" y="64.51" width="1.94" height="12.95" rx=".28" ry=".28"/><path class="d" d="M245.64,68.24h-8.84c.12-1.19,.16-2.08,.25-4.06,0-.07-.02-.15-.07-.2-.05-.05-.12-.09-.2-.09l-1.5-.05c-.07,0-.15,.03-.2,.08-.05,.05-.08,.12-.08,.2,0,1.24,0,2.15-.14,4.12h-6.47c-.15,0-.28,.12-.28,.28v1.34c0,.15,.13,.28,.28,.28h6.24c-.81,5.8-2.88,9.27-7.09,11.92-.07,.04-.11,.11-.13,.19-.01,.08,0,.16,.06,.22l.88,1.08c.05,.07,.13,.1,.22,.1,.05,0,.1-.01,.14-.04,3.06-1.8,6.72-4.96,7.89-13.48h7.31v2.28c0,2.12-.18,6.64-.61,8-.16,.48-.4,1.21-2.04,1.21-1.4,0-2.55-.19-3.8-.41-.08-.01-.16,0-.23,.06-.06,.05-.1,.13-.1,.21v1.43c0,.13,.1,.25,.23,.27l.17,.03c.73,.13,1.73,.32,3.57,.32,.94,0,3.14,0,3.94-1.97,.81-1.97,.87-7.49,.87-9.13v-3.92c0-.15-.13-.28-.28-.28Z"/><path class="d" d="M265.64,68.05c.03,.08,.08,.14,.16,.17,.03,.01,.07,.02,.11,.02,.04,0,.08,0,.12-.03l1.27-.62c.12-.06,.18-.2,.14-.34-.51-1.59-1.18-3.08-2.05-4.57-.08-.13-.24-.18-.36-.11l-1.15,.58c-.07,.03-.12,.09-.14,.17-.02,.07-.01,.15,.02,.22,.77,1.38,1.26,2.56,1.89,4.51Z"/><path class="d" d="M258.55,69.09s.09,.03,.13,.03c.03,0,.06,0,.09-.01,.07-.02,.13-.08,.17-.15l.62-1.36c.06-.14,0-.3-.13-.37-2.09-1.01-4.18-1.97-6.67-2.58-.12-.03-.26,.03-.31,.15l-.62,1.24c-.04,.08-.04,.16,0,.24,.03,.08,.1,.13,.18,.15,2.17,.58,4.37,1.47,6.55,2.65Z"/><path class="d" d="M256.88,74.51s.06,0,.09-.01c.07-.02,.13-.08,.17-.15l.62-1.38c.06-.13,.01-.28-.11-.35-1.62-.96-4.73-2.2-6.65-2.63-.13-.03-.26,.03-.31,.15l-.6,1.27c-.03,.07,0,.17,.02,.24s.12,.14,.2,.16c1.06,.32,3.56,1.09,6.44,2.68,.04,.02,.09,.03,.13,.03Z"/><path class="d" d="M267.57,68.53c-.07-.05-.16-.07-.25-.04-.08,.03-.15,.09-.18,.18-1.97,5.97-4.65,11.43-15.7,12.5-.08,0-.15,.05-.2,.12s-.06,.15-.04,.23l.37,1.52c.03,.13,.14,.21,.27,.21,.01,0,.02,0,.03,0,9.45-1.19,14.06-4.86,17.02-13.52,.04-.12,0-.24-.1-.32l-1.22-.88Z"/><path class="d" d="M268.46,62.33l-1.17,.58c-.07,.03-.12,.1-.14,.17s-.01,.15,.03,.22c.8,1.39,1.25,2.44,1.93,4.51,.03,.08,.08,.14,.16,.17,.03,.01,.07,.02,.11,.02,.04,0,.09-.01,.13-.03l1.27-.65c.12-.06,.18-.21,.14-.34-.51-1.5-1.05-2.85-2.08-4.54-.07-.12-.23-.17-.36-.11Z"/><path class="d" d="M288.04,80.79h-6.91v-9.16h5.87c.15,0,.28-.12,.28-.28v-1.27c0-.15-.13-.28-.28-.28h-13.4c-.15,0-.28,.12-.28,.28v1.27c0,.15,.13,.28,.28,.28h5.66v9.16h-6.7c-.15,0-.28,.12-.28,.28v1.2c0,.15,.13,.28,.28,.28h15.48c.15,0,.28-.12,.28-.28v-1.2c0-.15-.13-.28-.28-.28Z"/><path class="d" d="M299.54,70.6s.04,0,.06,0c.08-.02,.14-.06,.18-.13l.81-1.34c.08-.13,.04-.3-.09-.38-1.9-1.25-4.72-2.52-7.17-3.24-.12-.03-.25,.02-.32,.12l-.78,1.31c-.04,.07-.05,.16-.02,.25,.03,.08,.1,.14,.18,.16,2.01,.58,4.95,1.78,6.99,3.19,.05,.03,.1,.05,.16,.05Z"/><path class="d" d="M311.36,67.82l-1.2-.94c-.07-.06-.17-.08-.25-.05-.09,.03-.16,.09-.18,.18-.63,2-2.12,6.67-6.29,10.14-2.92,2.41-6.43,3.69-10.45,3.81-.08,0-.15,.04-.21,.1-.05,.06-.07,.14-.06,.22l.23,1.59c.02,.14,.14,.24,.28,.24h.01c4.01-.16,7.95-1.63,11.08-4.14,4.6-3.71,6.31-8.52,7.14-10.83,.04-.11,0-.24-.09-.31Z"/></g></g><g><g><path class="d" d="M126.63,10.2c2.53,0,5.07,.83,7.53,2.47,.11,.07,.24,.09,.36,.05,.12-.04,.21-.13,.25-.25l2.63-7.76c.07-.2-.03-.42-.23-.5-1.03-.44-2.75-.81-5.26-1.15-2.46-.33-4.51-.5-6.1-.5-4.83,0-8.79,1.22-11.78,3.61-3.02,2.42-4.55,5.74-4.55,9.87,0,1.08,.16,2.13,.48,3.14,.32,1.01,.8,2,1.43,2.95,.63,.95,1.24,1.7,1.82,2.24,.58,.53,1.67,1.39,3.24,2.54l5.16,3.73c2.68,1.9,4.03,3.63,4.03,5.13s-.69,2.68-2.12,3.52c-1.47,.86-3.37,1.3-5.63,1.3-3.77,0-7.13-.99-9.99-2.94-.11-.07-.24-.09-.35-.05-.12,.04-.22,.13-.26,.25l-2.76,7.68c-.07,.2,.02,.42,.22,.51,3.87,1.71,8.03,2.57,12.38,2.57,5.31,0,9.71-1.16,13.06-3.44,3.4-2.32,5.12-5.59,5.12-9.71,0-1.08-.17-2.14-.51-3.17-.34-1.02-.85-2.05-1.53-3.06-.67-1-1.32-1.79-1.93-2.36-.6-.55-1.68-1.44-3.21-2.64l-4.96-3.82c-2.68-2.04-4.04-3.78-4.04-5.17,0-3.38,2.46-5.03,7.51-5.03Z"/><path class="d" d="M156.85,15.06h-12.71c-.19,0-.35,.13-.4,.31l-1.38,6c-.03,.12,0,.25,.08,.34,.08,.1,.19,.15,.32,.15h4l-5.22,25.49c-.02,.12,0,.24,.08,.34s.19,.15,.31,.15h8.34c.19,0,.36-.14,.4-.32l6.57-31.98c.02-.12,0-.24-.08-.34s-.19-.15-.31-.15Z"/><path class="d" d="M153.2,.13c-1.58,0-2.94,.48-4.06,1.43-1.13,.96-1.7,2.19-1.7,3.64s.58,2.68,1.72,3.64c1.12,.94,2.48,1.42,4.04,1.42s2.92-.49,4.04-1.44c1.14-.97,1.72-2.19,1.72-3.62s-.58-2.68-1.72-3.64c-1.12-.95-2.48-1.42-4.04-1.42Z"/><path class="d" d="M178.95,1.95h-8.15c-.19,0-.35,.13-.4,.31l-6.6,28.58c-1.05,4.57-1.59,8.12-1.59,10.57,0,1.97,.61,3.6,1.82,4.85,1.21,1.25,2.88,1.89,4.95,1.89,2.76,0,4.85-1,6.21-2.98,.09-.12,.1-.29,.02-.42s-.21-.22-.36-.22c-1.09,0-1.97-.3-2.69-.9-.7-.59-1.04-1.38-1.04-2.42,0-1.78,.48-4.8,1.44-8.99l6.77-29.77c.03-.12,0-.25-.08-.34-.08-.1-.19-.15-.32-.15Z"/><path class="d" d="M200.34,15.06h-12.71c-.19,0-.35,.13-.4,.31l-1.38,6c-.03,.12,0,.25,.08,.34,.08,.1,.19,.15,.32,.15h4l-5.22,25.49c-.02,.12,0,.24,.08,.34s.19,.15,.31,.15h8.34c.19,0,.36-.14,.4-.32l6.57-31.98c.02-.12,0-.24-.08-.34s-.19-.15-.31-.15Z"/><path class="d" d="M196.69,.13c-1.58,0-2.94,.48-4.06,1.43-1.13,.96-1.7,2.19-1.7,3.64s.58,2.68,1.72,3.64c1.12,.94,2.48,1.42,4.04,1.42s2.92-.49,4.04-1.44c1.14-.97,1.72-2.19,1.72-3.62s-.58-2.68-1.72-3.64c-1.12-.95-2.48-1.42-4.04-1.42Z"/><path class="d" d="M225.73,14.46c-6.22,0-11.32,2-15.17,5.95-3.85,3.94-5.8,9-5.8,15.04,0,4.03,1.36,7.24,4.03,9.55,2.66,2.29,6.3,3.46,10.82,3.46,3.58,0,7.11-.65,10.49-1.94,.14-.05,.24-.18,.26-.33l.99-7.79c.02-.15-.05-.3-.18-.39s-.29-.09-.43-.01c-3.88,2.22-7.3,3.35-10.15,3.35-1.94,0-3.47-.65-4.69-1.99-1.21-1.33-1.83-2.95-1.83-4.83,0-3.72,1.12-6.86,3.33-9.33,2.2-2.46,5.15-3.7,8.78-3.7,2.25,0,4.52,.75,6.74,2.23,.11,.07,.25,.09,.37,.04,.12-.05,.22-.15,.25-.28l1.68-6.54c.05-.18-.04-.38-.21-.46-2.61-1.34-5.73-2.02-9.29-2.02Z"/><path class="d" d="M268.48,38.43c0-.87,.07-1.66,.22-2.37l4.07-19.62c.04-.2-.07-.39-.25-.46-2.66-1.01-7.03-1.52-12.99-1.52s-11.49,2.23-15.59,6.62c-4.09,4.39-6.17,9.73-6.17,15.88,0,3.59,1.1,6.43,3.27,8.45,2.16,2.01,5.23,3.03,9.13,3.03s7.51-1.18,10.31-3.51c.81,1.94,2.02,2.91,3.59,2.91h5.12c.14,0,.27-.07,.34-.19,.07-.12,.09-.26,.03-.39-.72-1.57-1.08-4.55-1.08-8.85Zm-16.17,3.12c-3.49,0-5.18-1.56-5.18-4.76,0-4.06,1.08-7.69,3.21-10.8,2.13-3.11,4.9-4.62,8.47-4.62,1.23,0,2.55,.17,3.94,.49-1.35,8-2.89,13.35-4.59,15.9-1.67,2.52-3.64,3.79-5.85,3.79Z"/></g><path class="d" d="M275.3,56.41l2.96-4.18c4.01,1.83,7.32,2.75,9.95,2.75,2.89,0,5.3-.49,7.23-1.46,1.93-.98,2.89-2.34,2.89-4.09,0-.88-.32-1.6-.97-2.16-.65-.57-1.75-.97-3.3-1.21l-5.78-.9c-2.34-.54-3.51-1.62-3.51-3.26,0-1.31,1.87-2.64,5.62-3.97l-1.12,.03c-2.56,0-4.81-.87-6.75-2.61-1.94-1.74-2.91-3.84-2.91-6.29,0-4.18,1.48-7.59,4.44-10.23,2.96-2.64,6.73-3.96,11.33-3.96,3.31,0,5.91,.72,7.82,2.15l2.96-3.05,3.45,3.22-3.25,3.08c.64,.82,.95,2.1,.95,3.85,0,3.43-.95,6.36-2.86,8.81-1.91,2.45-4.4,4.17-7.47,5.15-3.08,.99-4.62,1.91-4.62,2.76,0,.7,.42,1.05,1.25,1.05,.31,0,.76-.04,1.36-.13s1.06-.13,1.36-.13c5.47,0,8.21,2.25,8.21,6.75,0,3.52-1.72,6.34-5.17,8.45-3.45,2.11-7.55,3.16-12.3,3.16s-8.74-1.19-11.76-3.58Zm19.61-36.97c-2.52,0-4.64,.89-6.36,2.67-1.72,1.78-2.58,3.88-2.58,6.29,0,4.34,1.81,6.51,5.42,6.51,2.45,0,4.62-1.09,6.5-3.27,1.88-2.18,2.82-4.5,2.82-6.94,0-1.61-.53-2.89-1.58-3.84-1.05-.95-2.46-1.42-4.24-1.42Z"/><path class="d" d="M318.18,32.34c-.2,.96-.3,1.87-.3,2.75,0,2.63,.81,4.65,2.43,6.06,1.62,1.41,3.89,2.12,6.8,2.12,2.58,0,5.19-.87,7.82-2.6l-.66,5.79c-3.5,1.05-6.6,1.58-9.3,1.58-9.07,0-13.6-4.62-13.6-13.86,0-5.44,1.91-10.01,5.72-13.74,3.81-3.72,8.61-5.58,14.39-5.58,3.48,0,6.26,.68,8.34,2.03,2.08,1.35,3.12,3.28,3.12,5.79,0,3.49-1.62,6.23-4.86,8.24-3.24,2.01-7.22,3.02-11.92,3.02-3.15,0-5.82-.54-7.98-1.61Zm1.08-4.12c1.66,.68,3.62,1.01,5.88,1.01,3.42,0,6.21-.5,8.38-1.51,2.17-1.01,3.25-2.47,3.25-4.41,0-2.45-1.86-3.67-5.58-3.67-5.67,0-9.65,2.86-11.93,8.57Z"/><path class="d" d="M364.16,47.45l3.68-18.6c.33-1.65,.49-3.03,.49-4.12,0-3.38-1.94-5.08-5.81-5.08-1.49,0-3.08,.4-4.78,1.19-1.7,.8-3.05,1.74-4.06,2.84l-4.57,23.77h-6.31l4.73-24.25c.11-.56,.17-1.21,.17-1.97,0-2.03-.23-3.79-.69-5.29l6.04-1.08c.59,2.91,.88,4.49,.85,4.75,2.67-3.17,6.53-4.75,11.56-4.75,6.35,0,9.53,2.95,9.53,8.84,0,1.18-.14,2.49-.43,3.94l-3.78,19.8h-6.63Z"/></g></g><g><path class="d" d="M32.43,62.37c-.3-3.11,1.99-5.76,5.09-6.17,3.18-.43,5.95,1.86,6.17,5.09,.22,3.12-1.98,5.87-5.09,6.17-3.11,.3-5.87-1.98-6.17-5.09Z"/><path class="d" d="M41.1,45.88c-1.13-1.47-2.28-2.9-3.23-4.15-.56-.74-.21-1.23,.71-1.64,1.71-.76,3.42-1.52,5.17-2.2,.79-.31,1.4,.02,1.86,.61,.88,1.14,2.03,2.64,2.91,3.75,.49,.62,.71,1.19-.45,1.73-1.71,.78-3.43,1.5-5.17,2.2-.81,.32-1.4,.24-1.8-.29Z"/><path class="d" d="M27.17,69.98l-4.88,2.79c-.85,.49-.58,1.08,.08,1.88,6.18,7.51,15.72,8.9,23.05,6.07,1.03-.4,1.45-.69,.77-1.87l-2.77-4.71c-.56-.89-1.22-.79-2.12-.55-4.08,1.09-8.63,.1-11.83-3.11-.81-.81-1.26-1.07-2.3-.49Z"/><path class="d" d="M29.22,43.62c-2.41,1.01-5.57,3.66-6.78,5.29-.53,.72-1.07,1.56,.55,1.62,3.37,.11,6.81-.25,10.22-1.09,1.23-.3,1.84-.75,.9-1.91s-1.92-2.43-2.75-3.53c-.68-.9-.98-.86-2.15-.37Z"/><path class="d" d="M46.37,72.67l2.77,4.71c.51,.84,1.28,.7,2.34-.28,7.8-7.15,10.15-19.19,1.06-29.73-.6-.7-.94-.86-2.1-.32-.02,0-5.19,2.25-5.21,2.26-.7,.32-.8,.97,.16,2.02,6.21,6.78,6.52,13.25,1.43,19.02-.76,.86-.91,1.51-.43,2.32Z"/><g><path class="d" d="M20.68,23.44C1.37,25.13,.76,40.07,15.89,45.11c.84,.28,.48,.86,.08,1.47-.37,.56-.73,1.12-1.07,1.7-.31,.52-.8,.92-1.74,.67C-5.98,43.83-3.42,21.3,20.48,20.03c.85-.04,1.24,.21,1.2,.74-.03,.49-.02,.99-.04,1.48-.03,.54-.2,1.13-.97,1.2Z"/><path class="d" d="M31.38,.15C21.14,3.04,12.4,9.57,6.78,18.3c-1.07,1.65-.27,1.58,.82,1.07,3.62-1.69,8.1-2.82,13.4-3.18,.96-.06,1.41-.49,1.93-2.1,1.55-4.82,4.44-9.29,8.7-12.67,1.05-.83,1.66-1.81-.25-1.27Z"/><path class="d" d="M12.24,54.57c-1.61,5.65-1.32,11.78,.96,17.34,.66,1.6,.05,1.58-.98,.54C5.66,65.78,1.24,56.99,.07,47.21c-.09-.78-.32-2.15,1.01-.89,2.58,2.43,6.07,4.56,10.54,5.99,.82,.26,1.03,.79,.61,2.26Z"/><path class="d" d="M20.82,27.22c-14.73,.95-16.83,11.77,.79,15.71,1.27,.28,2.01-.12,2.82-.72,.7-.52,1.46-.96,2.23-1.39,.72-.39,1.35-1.07,.23-2.6-2.12-2.89-3.59-6.06-4.43-9.35-.36-1.39-.52-1.74-1.63-1.66Z"/></g><path class="d" d="M27.51,55.73c-1.61,2.71-2.03,6.27-1.22,9.25,.28,1.01,.13,1.6-.64,2.07l-4.88,2.79c-1.11,.63-1.39-.1-1.83-1.26-1.54-4.1-1.53-8.64-.23-12.81,.39-1.25,.75-1.7,1.87-1.67,1.04,.03,4.04,.2,6.44,.07,.9-.05,1.28,.22,.48,1.56Z"/><path class="d" d="M67.81,28.36c2.18-6.99,.49-14.92-5.06-20.44C54.81,.04,41.98,.08,34.09,8.01c-7.89,7.94-7.92,20.96,.02,28.84,.6,.6,1.27,.48,2.1,.14,.02,0,5.19-2.25,5.21-2.26,.64-.31,.76-.82-.17-1.75-6.54-6.54-6.17-14.5-1.42-19.27,4.74-4.77,12.46-4.8,17.23-.05,3.93,3.91,4.62,9.83,2.11,14.47-.74,1.37-.95,1.92,.41,1.84,2.39-.14,5.4,.01,6.44,.07,.87,.05,1.35-.24,1.79-1.68Z"/><g><path class="d" d="M54.12,21.77c.3,3.11-1.99,5.76-5.09,6.17-3.18,.43-5.95-1.86-6.17-5.09-.22-3.12,1.98-5.87,5.09-6.17,3.11-.3,5.87,1.98,6.17,5.09Z"/><path class="d" d="M57.33,40.51c2.41-1.01,5.57-3.66,6.78-5.29,.53-.72,1.07-1.56-.55-1.62-3.37-.11-6.81,.25-10.22,1.09-1.23,.3-1.84,.75-.9,1.91,.98,1.21,1.92,2.43,2.75,3.53,.68,.9,.98,.86,2.15,.37Z"/><g><path class="d" d="M65.88,60.69c19.31-1.68,19.92-16.63,4.79-21.66-.84-.28-.48-.86-.08-1.47,.37-.56,.73-1.12,1.07-1.7,.31-.52,.8-.92,1.74-.67,19.14,5.11,16.57,27.65-7.33,28.91-.85,.04-1.24-.21-1.2-.74,.03-.49,.02-.99,.04-1.48,.03-.54,.2-1.13,.97-1.2Z"/><path class="d" d="M55.18,83.98c10.24-2.89,18.97-9.42,24.6-18.15,1.07-1.65,.27-1.58-.82-1.07-3.62,1.69-8.1,2.82-13.4,3.18-.96,.06-1.41,.49-1.93,2.1-1.55,4.82-4.44,9.29-8.7,12.67-1.05,.83-1.66,1.81,.25,1.27Z"/><path class="d" d="M74.32,29.57c1.61-5.65,1.32-11.78-.96-17.34-.66-1.6-.05-1.58,.98-.54,6.56,6.67,10.97,15.45,12.14,25.24,.09,.78,.32,2.15-1.01,.89-2.58-2.43-6.07-4.56-10.54-5.99-.82-.26-1.03-.79-.61-2.26Z"/><path class="d" d="M65.73,56.91c14.73-.95,16.83-11.77-.79-15.71-1.27-.28-2.01,.12-2.82,.72-.7,.52-1.46,.96-2.23,1.39-.72,.39-1.35,1.07-.23,2.6,2.12,2.89,3.59,6.06,4.43,9.35,.36,1.39,.52,1.74,1.63,1.66Z"/></g></g></g></g></g></g></svg>