<?xml version="1.0" encoding="UTF-8"?><svg xmlns="http://www.w3.org/2000/svg" viewBox="0 0 438.29 82.18"><defs><style>.d{fill:#f4a100;}.e{fill:#f9bc00;}.f{fill:#004c87;}.g{fill:#003067;}.h{fill:#00a6d8;}.i{fill:#0076ba;}.j{fill:#00963b;}.k{fill:#ec6a02;}.l{fill:#fff;}.m{fill:#e73819;}.n{fill:#d29100;}.o{fill:#c60f28;}.p{fill:#dc007a;}.q{fill:#e4001e;}.r{fill:#d6a600;}.s{fill:#417935;}.t{fill:#960b30;}.u{fill:#4f4946;}.v{fill:#7c6c63;}.w{fill:#25a739;}</style></defs><g id="a"/><g id="b"><g id="c"><g><rect class="l" width="438.29" height="82.18"/><g><g><g><g><path class="u" d="M180.79,57.85c-.16-.21-.59-.74-.9-1.54v4.79h-.48v-4.65c-.48,1.42-.96,2.09-1.2,2.41l-.3-.58c.86-1.02,1.33-2.37,1.48-3.18h-1.38v-.48h1.4v-1.92h.48v1.92h1.15v.48h-1.15v.31c.48,1.23,1.04,1.79,1.25,2.02l-.36,.41h0Zm3.21,3.25h-.49v-3.69c-.28,.58-1.04,1.9-2.41,2.96l-.44-.4c.45-.32,1.75-1.27,2.62-3.07h-2.25v-.45h2.47v-1.59h-1.37c-.27,.6-.51,.9-.71,1.16l-.38-.29c.71-.86,1.01-1.67,1.14-2.8l.46,.05c-.11,.83-.25,1.22-.32,1.43h1.19v-1.69h.49v1.69h2.11v.45h-2.11v1.59h2.39v.45h-2.17c.13,.31,.76,1.84,2.25,3.05l-.36,.47c-1.12-1.04-1.79-2.17-2.11-2.99v3.69h0Z"/><path class="u" d="M192.02,59.91c-2.21,.51-3.91,.71-4.85,.81l-.05-.52c.71-.07,1.27-.13,2.15-.25v-3.15h-1.82v-.47h4.22v.47h-1.9v3.06c1-.16,1.61-.3,2.18-.43l.07,.48h0Zm.5-7.2c-.02,.71-.02,1.15-.01,1.63h3.03v.47h-3.01c.04,1.08,.19,3.32,1.02,4.78,.09,.15,.56,.98,1.01,.98,.18,0,.27-.14,.32-.28,.1-.28,.21-.71,.23-1.4l.52,.13c-.09,1.01-.34,1.56-.4,1.67-.09,.18-.28,.39-.66,.39-.88,0-1.61-1.43-1.82-1.98-.38-.97-.65-2.18-.73-4.27h-4.86v-.47h4.84c-.02-.81-.02-1.13-.02-1.63h.53Zm2.32,1.44c-.27-.26-.68-.6-1.44-1.04l.27-.37c.43,.24,.87,.51,1.47,1.01l-.31,.39Z"/><path class="u" d="M200.71,52.7c1.43,1.92,3.22,2.72,4.15,3.07l-.28,.49c-1.27-.6-3.01-1.57-4.09-3.07-1.13,1.44-2.24,2.18-4.09,3.01l-.25-.51c1.45-.51,2.88-1.38,4.04-2.98h.53Zm1.17,5.35c1.29,1.11,1.97,1.98,2.47,2.72l-.44,.33c-.11-.2-.19-.36-.53-.78-.49,.02-2.84,.22-3.33,.25-.56,.04-3.02,.13-3.51,.16l-.05-.49c.08,0,1.06-.03,1.21-.04,.41-.59,.93-1.49,1.4-2.56h-2.57v-.46h7.98v.46h-4.82c-.38,.86-1,1.95-1.4,2.54,2.36-.09,3.19-.13,4.75-.28-.23-.26-.78-.89-1.53-1.53l.38-.32h-.01Zm-3.79-2.67h4.8v.47h-4.8v-.47Z"/><path class="u" d="M208.72,58.13c-.39-.3-1.08-1.12-1.22-1.3v4.26h-.49v-3.92c-.7,.64-1.16,.9-1.43,1.06l-.21-.49c1.54-.88,2.58-2.09,2.94-3.06h-2.84v-.44h1.54v-1.54h.49v1.54h1.32v.44c-.22,.64-.71,1.27-1.09,1.74,.6,.67,.71,.78,1.35,1.31l-.36,.38h0Zm2.79-5.42v2.7h2.13v.47h-2.13v4.41h2.33v.46h-5.24v-.46h2.39v-4.41h-1.91v-.47h1.91v-2.7h.52Z"/></g><g><path class="u" d="M222.6,54.47s.05,.02,.07,.02c.01,0,.03,0,.04,0,.04-.01,.07-.04,.08-.08l.32-.71c.03-.07,0-.14-.06-.18-1.13-.62-1.94-.93-3.31-1.28-.07-.02-.13,.02-.16,.07l-.3,.61s-.02,.08,0,.12c.02,.04,.05,.07,.09,.08,.98,.28,2.05,.64,3.23,1.36h0Z"/><path class="u" d="M227.25,53.91s-.08-.04-.13-.02c-.04,.01-.08,.04-.09,.09-1.41,4.29-3.5,5.98-7.95,6.45-.04,0-.07,.02-.1,.05-.02,.03-.03,.07-.03,.11l.14,.77c.01,.07,.07,.12,.14,.12h.02c4.99-.71,6.92-2.28,8.59-6.98,.02-.05,0-.12-.04-.15l-.55-.42h0Z"/><path class="u" d="M221.78,57.15s.03,0,.04,0c.04-.01,.07-.04,.08-.07l.33-.68c.03-.07,0-.15-.06-.18-1.23-.67-1.94-.96-3.29-1.34-.07-.02-.13,.01-.16,.07l-.31,.63s-.02,.08,0,.12,.05,.07,.09,.08c1.3,.37,2.05,.69,3.21,1.37,.02,.01,.04,.02,.07,.02h0Z"/><path class="u" d="M236.75,52.05h-.72c-.08,0-.14,.06-.14,.14v4.95c0,2.57-1.45,3.57-5.36,3.68-.04,0-.08,.02-.1,.05s-.03,.08-.03,.12l.15,.67c.02,.07,.07,.11,.14,.11h0c3.06-.15,6.2-.82,6.2-4.67v-4.92c0-.08-.06-.14-.14-.14h0Z"/><rect class="u" x="229.89" y="52.24" width=".96" height="6.43" rx=".14" ry=".14"/><path class="u" d="M248.02,54.09h-4.39c.06-.59,.08-1.04,.12-2.02,0-.04-.01-.07-.04-.1-.03-.03-.06-.04-.1-.04l-.75-.02s-.07,.01-.1,.04c-.03,.03-.04,.06-.04,.1,0,.61,0,1.07-.07,2.05h-3.21c-.08,0-.14,.06-.14,.14v.66c0,.08,.06,.14,.14,.14h3.1c-.4,2.88-1.43,4.6-3.52,5.92-.03,.02-.05,.05-.06,.09s0,.08,.03,.11l.43,.54s.07,.05,.11,.05c.02,0,.05,0,.07-.02,1.52-.89,3.34-2.47,3.92-6.69h3.63v1.13c0,1.05-.09,3.3-.3,3.97-.08,.24-.2,.6-1.01,.6-.7,0-1.27-.09-1.88-.2-.04,0-.08,0-.12,.03s-.05,.07-.05,.1v.71c0,.07,.05,.13,.12,.14l.08,.02c.36,.07,.86,.16,1.78,.16,.47,0,1.56,0,1.96-.98,.4-.98,.43-3.72,.43-4.54v-1.94c0-.08-.06-.14-.14-.14h0Z"/><path class="u" d="M257.96,54s.04,.07,.08,.08c.02,0,.04,.01,.05,.01,.02,0,.04,0,.06-.02l.63-.31c.06-.03,.09-.1,.07-.16-.25-.79-.59-1.53-1.02-2.27-.04-.07-.12-.09-.18-.05l-.57,.28s-.06,.05-.07,.08c-.01,.04,0,.08,.01,.11,.38,.68,.63,1.27,.94,2.24Z"/><path class="u" d="M254.43,54.51s.04,.02,.07,.02c.02,0,.03,0,.04,0,.04-.01,.07-.04,.08-.07l.31-.67c.03-.07,0-.15-.07-.18-1.04-.5-2.08-.98-3.31-1.28-.06-.01-.13,.02-.16,.07l-.31,.62s-.02,.08,0,.12c.02,.04,.05,.07,.09,.08,1.08,.29,2.17,.73,3.25,1.31h0Z"/><path class="u" d="M253.6,57.21s.03,0,.04,0c.04-.01,.07-.04,.08-.08l.31-.68c.03-.07,0-.14-.05-.18-.81-.48-2.35-1.09-3.3-1.31-.06-.02-.13,.02-.15,.08l-.3,.63s0,.08,.01,.12,.06,.07,.1,.08c.53,.16,1.77,.54,3.19,1.33,.02,.01,.04,.02,.07,.02h0Z"/><path class="u" d="M258.91,54.23s-.08-.03-.13-.02c-.04,.02-.08,.04-.09,.09-.98,2.97-2.31,5.68-7.8,6.21-.04,0-.08,.03-.1,.06s-.03,.08-.02,.12l.18,.76c.02,.06,.07,.1,.14,.1h.02c4.69-.59,6.99-2.42,8.45-6.72,.02-.06,0-.12-.05-.16l-.61-.43h0Z"/><path class="u" d="M259.36,51.15l-.59,.28s-.06,.05-.07,.08,0,.08,.01,.11c.4,.69,.62,1.21,.96,2.24,.01,.04,.04,.07,.08,.08,.02,0,.03,.01,.05,.01s.04,0,.06-.02l.63-.32c.06-.03,.09-.1,.07-.17-.25-.75-.53-1.41-1.03-2.26-.04-.06-.12-.08-.18-.05h.01Z"/><path class="u" d="M269.09,60.33h-3.43v-4.55h2.91c.08,0,.14-.06,.14-.14v-.63c0-.08-.06-.14-.14-.14h-6.66c-.08,0-.14,.06-.14,.14v.63c0,.08,.06,.14,.14,.14h2.81v4.55h-3.33c-.08,0-.14,.06-.14,.14v.6c0,.08,.06,.14,.14,.14h7.69c.08,0,.14-.06,.14-.14v-.6c0-.08-.06-.14-.14-.14Z"/><path class="u" d="M274.79,55.26h.03s.07-.03,.09-.07l.4-.66c.04-.07,.02-.15-.04-.19-.95-.62-2.34-1.25-3.56-1.61-.06-.02-.13,0-.16,.06l-.39,.65s-.03,.08-.01,.12c.02,.04,.05,.07,.09,.08,1,.28,2.46,.89,3.47,1.58,.02,.02,.05,.02,.08,.02h0Z"/><path class="u" d="M280.67,53.88l-.6-.47s-.08-.04-.13-.02c-.04,.01-.08,.05-.09,.09-.31,.99-1.05,3.31-3.12,5.04-1.45,1.19-3.19,1.84-5.19,1.89-.04,0-.08,.02-.1,.05-.03,.03-.04,.07-.03,.11l.12,.79c.01,.07,.07,.12,.14,.12h0c1.99-.08,3.95-.81,5.51-2.05,2.28-1.84,3.13-4.23,3.54-5.38,.02-.05,0-.12-.04-.15h0Z"/></g></g><g><g><path class="u" d="M188.91,25.26c1.26,0,2.51,.41,3.74,1.23,.05,.03,.12,.04,.18,.02s.1-.07,.13-.13l1.3-3.86c.03-.1-.02-.21-.11-.25-.51-.22-1.37-.41-2.61-.57-1.22-.16-2.24-.25-3.03-.25-2.4,0-4.37,.6-5.85,1.8-1.5,1.2-2.26,2.85-2.26,4.9,0,.54,.08,1.06,.24,1.56,.16,.5,.39,1,.71,1.47,.31,.47,.62,.84,.9,1.11,.28,.26,.83,.69,1.61,1.26l2.56,1.86c1.33,.94,2.01,1.8,2.01,2.55s-.35,1.33-1.05,1.75c-.73,.43-1.67,.65-2.79,.65-1.87,0-3.54-.49-4.96-1.46-.05-.03-.12-.04-.18-.03-.06,.02-.11,.07-.13,.13l-1.37,3.81c-.04,.1,.01,.21,.11,.25,1.92,.85,3.99,1.28,6.15,1.28,2.64,0,4.82-.58,6.49-1.71,1.69-1.15,2.54-2.78,2.54-4.83,0-.53-.09-1.06-.25-1.58-.17-.51-.42-1.02-.76-1.52-.33-.49-.66-.89-.96-1.17-.3-.27-.83-.71-1.59-1.31l-2.47-1.9c-1.33-1.01-2.01-1.88-2.01-2.57,0-1.68,1.22-2.5,3.73-2.5h-.01Z"/><path class="u" d="M203.92,27.68h-6.32c-.09,0-.18,.07-.2,.16l-.68,2.98c-.02,.06,0,.12,.04,.17s.1,.08,.16,.08h1.99l-2.59,12.66c-.01,.06,0,.12,.04,.17s.09,.08,.16,.08h4.14c.09,0,.18-.07,.2-.16l3.27-15.89c.01-.06,0-.12-.04-.17s-.09-.08-.16-.08Z"/><path class="u" d="M202.1,20.26c-.78,0-1.46,.24-2.02,.71-.56,.48-.84,1.08-.84,1.81s.28,1.33,.85,1.81c.56,.47,1.23,.71,2.01,.71s1.45-.24,2.01-.72c.56-.48,.85-1.09,.85-1.8s-.28-1.33-.85-1.81c-.56-.47-1.23-.71-2.01-.71h0Z"/><path class="u" d="M214.9,21.16h-4.05c-.09,0-.18,.07-.2,.16l-3.28,14.2c-.53,2.27-.79,4.03-.79,5.25,0,.98,.31,1.79,.9,2.41,.6,.62,1.43,.94,2.46,.94,1.37,0,2.41-.5,3.08-1.48,.04-.06,.05-.14,.01-.21s-.1-.11-.18-.11c-.54,0-.98-.15-1.34-.45-.35-.3-.51-.68-.51-1.21,0-.88,.24-2.38,.71-4.46l3.36-14.79c.02-.06,0-.12-.04-.17s-.1-.08-.16-.08h.02Z"/><path class="u" d="M225.52,27.68h-6.32c-.09,0-.18,.07-.2,.16l-.68,2.98c-.02,.06,0,.12,.04,.17s.1,.08,.16,.08h1.99l-2.59,12.66c-.01,.06,0,.12,.04,.17s.09,.08,.16,.08h4.14c.09,0,.18-.07,.2-.16l3.27-15.89c.01-.06,0-.12-.04-.17s-.09-.08-.16-.08Z"/><path class="u" d="M223.71,20.26c-.78,0-1.46,.24-2.02,.71-.56,.48-.84,1.08-.84,1.81s.28,1.33,.85,1.81c.56,.47,1.23,.71,2.01,.71s1.45-.24,2.01-.72c.56-.48,.85-1.09,.85-1.8s-.28-1.33-.85-1.81c-.56-.47-1.23-.71-2.01-.71h0Z"/><path class="u" d="M238.13,27.38c-3.09,0-5.62,.99-7.54,2.95-1.91,1.96-2.88,4.47-2.88,7.47,0,2,.67,3.59,2.01,4.74,1.32,1.14,3.13,1.72,5.37,1.72,1.78,0,3.53-.32,5.21-.96,.07-.03,.12-.09,.13-.16l.49-3.87c.01-.08-.03-.15-.09-.19s-.15-.04-.21,0c-1.93,1.11-3.63,1.67-5.04,1.67-.96,0-1.73-.32-2.33-.99-.6-.66-.91-1.47-.91-2.4,0-1.85,.56-3.41,1.65-4.63,1.09-1.22,2.56-1.84,4.36-1.84,1.12,0,2.25,.37,3.35,1.11,.05,.04,.12,.04,.19,.02,.06-.02,.11-.08,.12-.14l.83-3.25c.02-.09-.02-.19-.1-.23-1.3-.66-2.85-1-4.61-1h.01Z"/><path class="u" d="M259.37,39.29c0-.43,.04-.83,.11-1.18l2.02-9.75c.02-.1-.03-.19-.13-.23-1.32-.5-3.5-.76-6.45-.76s-5.7,1.11-7.74,3.29c-2.03,2.18-3.06,4.83-3.06,7.89,0,1.78,.55,3.19,1.62,4.2s2.6,1.51,4.54,1.51,3.73-.59,5.12-1.74c.4,.96,1,1.45,1.78,1.45h2.55c.07,0,.13-.03,.17-.09s.04-.13,.02-.19c-.36-.78-.54-2.26-.54-4.39Zm-8.03,1.55c-1.73,0-2.58-.77-2.58-2.37,0-2.02,.54-3.82,1.59-5.37s2.43-2.3,4.21-2.3c.61,0,1.27,.08,1.96,.25-.67,3.97-1.44,6.63-2.28,7.89-.83,1.25-1.81,1.88-2.91,1.88h0Z"/></g><path class="v" d="M262.75,48.21l1.47-2.08c1.99,.91,3.64,1.36,4.94,1.36,1.44,0,2.63-.24,3.59-.73,.96-.48,1.44-1.16,1.44-2.03,0-.43-.16-.79-.48-1.07-.32-.28-.87-.48-1.64-.6l-2.87-.44c-1.17-.27-1.75-.81-1.75-1.62,0-.65,.93-1.31,2.79-1.97l-.55,.02c-1.27,0-2.39-.43-3.35-1.3-.96-.87-1.45-1.91-1.45-3.12,0-2.08,.73-3.77,2.2-5.08s3.35-1.97,5.63-1.97c1.64,0,2.94,.36,3.88,1.07l1.47-1.51,1.71,1.6-1.62,1.53c.32,.41,.47,1.04,.47,1.91,0,1.7-.47,3.16-1.42,4.38s-2.19,2.07-3.71,2.56c-1.53,.49-2.3,.95-2.3,1.37,0,.35,.21,.52,.62,.52,.15,0,.38-.02,.68-.07s.53-.07,.68-.07c2.72,0,4.08,1.12,4.08,3.35,0,1.75-.85,3.15-2.57,4.2s-3.75,1.57-6.11,1.57-4.34-.59-5.84-1.78h.01Zm9.74-18.36c-1.25,0-2.3,.44-3.16,1.33-.85,.89-1.28,1.93-1.28,3.12,0,2.15,.9,3.23,2.69,3.23,1.22,0,2.3-.54,3.23-1.62,.94-1.08,1.4-2.24,1.4-3.45,0-.8-.26-1.44-.78-1.91s-1.22-.71-2.1-.71h0Z"/><path class="v" d="M284.05,36.26c-.1,.48-.15,.93-.15,1.36,0,1.3,.41,2.31,1.21,3.01,.81,.7,1.93,1.05,3.38,1.05,1.28,0,2.58-.43,3.88-1.29l-.33,2.88c-1.74,.53-3.28,.78-4.62,.78-4.5,0-6.76-2.3-6.76-6.88,0-2.7,.95-4.97,2.84-6.83,1.9-1.85,4.27-2.77,7.15-2.77,1.73,0,3.11,.33,4.15,1.01,1.03,.67,1.55,1.63,1.55,2.88,0,1.73-.81,3.1-2.42,4.09-1.61,1-3.58,1.5-5.92,1.5-1.57,0-2.89-.27-3.97-.8h0Zm.54-2.04c.83,.33,1.8,.5,2.92,.5,1.7,0,3.08-.25,4.16-.75,1.08-.5,1.62-1.23,1.62-2.19,0-1.22-.93-1.82-2.77-1.82-2.82,0-4.79,1.42-5.92,4.26h0Z"/><path class="v" d="M306.89,43.76l1.83-9.24c.16-.82,.25-1.5,.25-2.05,0-1.68-.96-2.52-2.89-2.52-.74,0-1.53,.2-2.37,.59s-1.52,.87-2.02,1.41l-2.27,11.81h-3.13l2.35-12.05c.05-.28,.08-.6,.08-.98,0-1.01-.12-1.88-.35-2.62l3-.54c.3,1.45,.43,2.23,.42,2.36,1.33-1.57,3.24-2.36,5.74-2.36,3.16,0,4.73,1.46,4.73,4.39,0,.59-.07,1.24-.21,1.96l-1.88,9.83h-3.3v.02Z"/></g></g><g><path class="n" d="M142.11,51.18c-.15-1.54,.99-2.86,2.53-3.07,1.58-.21,2.95,.92,3.07,2.53,.11,1.55-.99,2.92-2.53,3.07-1.54,.15-2.92-.99-3.07-2.53Z"/><path class="k" d="M146.42,42.98c-.56-.73-1.13-1.44-1.61-2.07-.28-.37-.1-.61,.36-.82,.85-.38,1.7-.76,2.57-1.09,.39-.15,.7,.01,.93,.31,.44,.57,1.01,1.31,1.44,1.86,.24,.31,.36,.59-.22,.85-.85,.39-1.7,.75-2.57,1.09-.41,.16-.7,.12-.89-.14h0Z"/><path class="w" d="M139.5,54.96l-2.43,1.39c-.42,.24-.29,.54,.04,.94,3.07,3.73,7.81,4.42,11.45,3.01,.51-.2,.72-.35,.38-.93l-1.37-2.34c-.27-.44-.6-.39-1.05-.27-2.03,.54-4.28,.05-5.87-1.54-.4-.4-.63-.53-1.14-.24h0Z"/><path class="s" d="M140.52,41.86c-1.2,.5-2.77,1.81-3.37,2.62-.26,.36-.53,.78,.27,.81,1.68,.05,3.38-.13,5.08-.54,.61-.15,.91-.37,.45-.95-.49-.6-.95-1.21-1.37-1.75-.34-.45-.49-.43-1.07-.19h0Z"/><path class="t" d="M149.04,56.29l1.37,2.34c.26,.42,.64,.35,1.16-.14,3.87-3.55,5.04-9.53,.53-14.77-.3-.35-.47-.43-1.05-.16-.01,0-2.58,1.12-2.59,1.12-.35,.16-.4,.48,.08,1,3.08,3.37,3.24,6.58,.71,9.45-.38,.43-.45,.75-.21,1.15h0Z"/><g><path class="d" d="M136.28,31.84c-9.59,.84-9.89,8.26-2.38,10.76,.42,.14,.24,.43,.04,.73-.18,.28-.37,.56-.53,.84-.15,.26-.39,.45-.87,.33-9.51-2.54-8.23-13.73,3.64-14.36,.42-.02,.61,.1,.6,.37-.02,.25-.01,.49-.02,.73-.01,.27-.1,.56-.48,.6h0Z"/><path class="q" d="M141.59,20.27c-5.08,1.44-9.42,4.68-12.22,9.02-.53,.82-.13,.78,.41,.53,1.8-.84,4.02-1.4,6.66-1.58,.48-.03,.7-.24,.96-1.04,.77-2.39,2.2-4.62,4.32-6.3,.52-.41,.82-.9-.12-.63h0Z"/><path class="i" d="M132.08,47.3c-.8,2.81-.66,5.85,.48,8.62,.33,.79,.02,.78-.49,.27-3.26-3.31-5.45-7.68-6.03-12.53-.04-.39-.16-1.07,.5-.44,1.28,1.21,3.01,2.26,5.24,2.97,.41,.13,.51,.39,.3,1.12h0Z"/><path class="p" d="M136.35,33.72c-7.31,.47-8.36,5.85,.39,7.81,.63,.14,1-.06,1.4-.36,.35-.26,.72-.48,1.11-.69,.36-.2,.67-.53,.12-1.29-1.05-1.44-1.78-3.01-2.2-4.65-.18-.69-.26-.86-.81-.83h0Z"/></g><path class="f" d="M139.67,47.88c-.8,1.35-1.01,3.11-.6,4.59,.14,.5,.07,.79-.32,1.02l-2.43,1.39c-.55,.31-.69-.05-.91-.63-.76-2.04-.76-4.29-.12-6.37,.19-.62,.37-.84,.93-.83,.51,.02,2.01,.1,3.2,.04,.45-.02,.64,.11,.24,.78h0Z"/><path class="r" d="M159.69,34.28c1.08-3.47,.25-7.41-2.51-10.15-3.94-3.92-10.32-3.9-14.24,.04-3.92,3.94-3.93,10.41,.01,14.33,.3,.3,.63,.24,1.05,.07,.01,0,2.58-1.12,2.59-1.12,.32-.15,.38-.41-.09-.87-3.25-3.25-3.06-7.2-.71-9.57s6.19-2.38,8.56-.03c1.96,1.94,2.3,4.88,1.05,7.19-.37,.68-.47,.95,.2,.91,1.19-.07,2.68,0,3.2,.04,.43,.03,.67-.12,.89-.83h0Z"/><g><path class="j" d="M152.89,31.01c.15,1.54-.99,2.86-2.53,3.07-1.58,.21-2.95-.92-3.07-2.53-.11-1.55,.99-2.92,2.53-3.07s2.92,.99,3.07,2.53Z"/><path class="o" d="M154.48,40.32c1.2-.5,2.77-1.81,3.37-2.62,.26-.36,.53-.78-.27-.81-1.68-.05-3.38,.13-5.08,.54-.61,.15-.91,.37-.45,.95s.95,1.21,1.37,1.75c.34,.45,.49,.43,1.07,.19h0Z"/><g><path class="h" d="M158.73,50.34c9.59-.84,9.89-8.26,2.38-10.76-.42-.14-.24-.43-.04-.73,.18-.28,.37-.56,.53-.84,.15-.26,.39-.45,.87-.33,9.51,2.54,8.23,13.73-3.64,14.36-.42,.02-.61-.1-.6-.37,.02-.25,.01-.49,.02-.73,.01-.27,.1-.56,.48-.6h0Z"/><path class="g" d="M153.42,61.91c5.08-1.44,9.42-4.68,12.22-9.02,.53-.82,.13-.78-.41-.53-1.8,.84-4.02,1.4-6.66,1.58-.48,.03-.7,.24-.96,1.04-.77,2.39-2.2,4.62-4.32,6.3-.52,.41-.82,.9,.12,.63h0Z"/><path class="m" d="M162.92,34.88c.8-2.81,.66-5.85-.48-8.62-.33-.79-.02-.78,.49-.27,3.26,3.31,5.45,7.68,6.03,12.53,.04,.39,.16,1.07-.5,.44-1.28-1.21-3.01-2.26-5.24-2.97-.41-.13-.51-.39-.3-1.12h0Z"/><path class="e" d="M158.65,48.46c7.31-.47,8.36-5.85-.39-7.81-.63-.14-1,.06-1.4,.36-.35,.26-.72,.48-1.11,.69-.36,.2-.67,.53-.12,1.29,1.05,1.44,1.78,3.01,2.2,4.65,.18,.69,.26,.86,.81,.83h0Z"/></g></g></g></g></g></g></g></svg>